<?xml version="1.0" encoding="UTF-8"?>
<!DOCTYPE svg PUBLIC "-//W3C//DTD SVG 1.1//EN" "http://www.w3.org/Graphics/SVG/1.1/DTD/svg11.dtd">
<svg xmlns="http://www.w3.org/2000/svg" version="1.1" width="1000px" height="562px" style="shape-rendering:geometricPrecision; text-rendering:geometricPrecision; image-rendering:optimizeQuality; fill-rule:evenodd; clip-rule:evenodd" xmlns:xlink="http://www.w3.org/1999/xlink">
<g><path style="opacity:1" fill="#6baa65" d="M 222.5,-0.5 C 410.5,-0.5 598.5,-0.5 786.5,-0.5C 786.5,186.833 786.5,374.167 786.5,561.5C 598.5,561.5 410.5,561.5 222.5,561.5C 222.5,374.167 222.5,186.833 222.5,-0.5 Z"/></g>
<g><path style="opacity:1" fill="#82ae7d" d="M 459.5,144.5 C 444.657,144.171 429.99,144.504 415.5,145.5C 412.454,145.183 410.787,146.516 410.5,149.5C 410.167,149.5 409.833,149.5 409.5,149.5C 409.472,147.418 410.139,145.584 411.5,144C 427.672,143.172 443.672,143.339 459.5,144.5 Z"/></g>
<g><path style="opacity:1" fill="#83af7e" d="M 610.5,144.5 C 593.658,144.17 576.992,144.503 560.5,145.5C 558.167,145.5 555.833,145.5 553.5,145.5C 553.768,147.099 553.434,148.432 552.5,149.5C 552.5,147.833 552.5,146.167 552.5,144.5C 571.984,143.224 591.317,143.224 610.5,144.5 Z"/></g>
<g><path style="opacity:1" fill="#a5c8a1" d="M 323.5,146.5 C 302.909,145.512 282.242,145.179 261.5,145.5C 261.865,150.958 262.865,156.292 264.5,161.5C 263.883,161.389 263.383,161.056 263,160.5C 261.513,155.221 260.347,149.888 259.5,144.5C 260.822,144.67 261.989,144.337 263,143.5C 283.452,143.828 303.619,144.828 323.5,146.5 Z"/></g>
<g><path style="opacity:1" fill="#a9caa6" d="M 415.5,145.5 C 429.99,144.504 444.657,144.171 459.5,144.5C 461.833,144.5 464.167,144.5 466.5,144.5C 466.833,147.167 467.167,149.833 467.5,152.5C 466.076,150.485 465.41,148.152 465.5,145.5C 448.833,145.5 432.167,145.5 415.5,145.5 Z"/></g>
<g><path style="opacity:1" fill="#a5c8a1" d="M 614.5,151.5 C 615.15,149.565 615.483,147.565 615.5,145.5C 597.167,145.5 578.833,145.5 560.5,145.5C 576.992,144.503 593.658,144.17 610.5,144.5C 612.877,144.216 615.044,144.216 617,144.5C 617.395,146.179 617.228,147.845 616.5,149.5C 616.253,150.713 615.586,151.38 614.5,151.5 Z"/></g>
<g><path style="opacity:1" fill="#fefefe" d="M 323.5,146.5 C 323.448,148.903 323.781,151.236 324.5,153.5C 324.171,156.228 324.837,158.562 326.5,160.5C 327.132,164.702 328.132,168.702 329.5,172.5C 329.739,177.769 330.739,182.769 332.5,187.5C 332.952,191.163 333.452,194.83 334,198.5C 334.278,199.416 334.778,200.082 335.5,200.5C 335.448,202.903 335.781,205.236 336.5,207.5C 336.674,210.874 337.174,214.207 338,217.5C 338.383,218.056 338.883,218.389 339.5,218.5C 341.22,229.118 343.553,239.451 346.5,249.5C 346.448,251.903 346.781,254.236 347.5,256.5C 347.054,259.01 347.72,261.01 349.5,262.5C 350.513,268.914 351.846,275.247 353.5,281.5C 353.755,285.8 354.755,289.8 356.5,293.5C 356.322,297.122 356.989,300.456 358.5,303.5C 358.336,306.187 358.503,308.854 359,311.5C 359.099,313.653 359.933,315.319 361.5,316.5C 362.06,320.193 362.727,323.86 363.5,327.5C 364.248,329.735 365.081,329.402 366,326.5C 366.497,324.19 366.663,321.857 366.5,319.5C 367.434,318.432 367.768,317.099 367.5,315.5C 368.612,313.401 369.279,311.067 369.5,308.5C 372.477,296.592 375.477,284.592 378.5,272.5C 380.579,267.127 381.912,261.461 382.5,255.5C 385.79,244.345 388.79,233.011 391.5,221.5C 392.657,218.727 393.324,215.727 393.5,212.5C 395.123,208.022 396.456,203.356 397.5,198.5C 399.798,192.776 401.464,186.776 402.5,180.5C 403.709,175.115 405.043,169.782 406.5,164.5C 408.591,159.809 409.924,154.809 410.5,149.5C 410.787,146.516 412.454,145.183 415.5,145.5C 432.167,145.5 448.833,145.5 465.5,145.5C 465.41,148.152 466.076,150.485 467.5,152.5C 467.898,156.761 468.898,160.761 470.5,164.5C 470.068,167.877 470.735,170.877 472.5,173.5C 474.009,180.762 476.009,187.762 478.5,194.5C 478.575,197.206 478.908,199.873 479.5,202.5C 479.446,205.992 480.446,208.992 482.5,211.5C 482.366,213.292 482.699,214.958 483.5,216.5C 485.233,225.439 487.566,234.106 490.5,242.5C 490.366,244.292 490.699,245.958 491.5,247.5C 491.338,249.527 491.505,251.527 492,253.5C 492.383,254.056 492.883,254.389 493.5,254.5C 494.519,260.575 495.852,266.575 497.5,272.5C 498.43,278.481 500.097,284.148 502.5,289.5C 504.003,296.513 505.67,303.513 507.5,310.5C 507.899,314.116 508.899,317.45 510.5,320.5C 510.5,321.5 510.5,322.5 510.5,323.5C 510.372,325.655 510.872,327.655 512,329.5C 512.717,328.956 513.217,328.289 513.5,327.5C 513.861,322.36 514.861,317.36 516.5,312.5C 518.217,309.155 518.884,305.489 518.5,301.5C 519.913,298.781 520.58,295.781 520.5,292.5C 522.118,288.425 523.118,284.092 523.5,279.5C 524.531,277.039 525.198,274.373 525.5,271.5C 527.166,263.508 528.832,255.508 530.5,247.5C 532.579,242.122 533.913,236.456 534.5,230.5C 536.247,224.04 537.581,217.373 538.5,210.5C 539.531,208.039 540.198,205.373 540.5,202.5C 542.28,201.01 542.946,199.01 542.5,196.5C 543.327,192.193 543.993,187.86 544.5,183.5C 546.575,179.526 547.575,175.192 547.5,170.5C 548.374,167.465 549.374,164.465 550.5,161.5C 552.136,157.79 552.802,153.79 552.5,149.5C 553.434,148.432 553.768,147.099 553.5,145.5C 555.833,145.5 558.167,145.5 560.5,145.5C 578.833,145.5 597.167,145.5 615.5,145.5C 615.483,147.565 615.15,149.565 614.5,151.5C 614.5,152.167 614.5,152.833 614.5,153.5C 612.692,154.918 612.025,156.918 612.5,159.5C 612.5,159.833 612.5,160.167 612.5,160.5C 608.917,170.831 606.251,181.497 604.5,192.5C 602.853,196.633 601.52,200.967 600.5,205.5C 599.055,208.937 598.055,212.603 597.5,216.5C 595.545,222.308 593.879,228.308 592.5,234.5C 591.962,236.117 591.629,237.784 591.5,239.5C 590.883,239.611 590.383,239.944 590,240.5C 588.957,243.757 588.457,247.09 588.5,250.5C 587.232,252.905 586.565,255.572 586.5,258.5C 584.389,264.606 582.722,270.939 581.5,277.5C 580.232,279.905 579.565,282.572 579.5,285.5C 577.692,286.918 577.025,288.918 577.5,291.5C 576.525,294.067 575.858,296.733 575.5,299.5C 573.544,305.312 571.877,311.312 570.5,317.5C 570.634,319.292 570.301,320.958 569.5,322.5C 568.883,322.611 568.383,322.944 568,323.5C 566.846,327.447 566.013,331.447 565.5,335.5C 564.025,340.4 563.025,345.4 562.5,350.5C 560.59,353.452 559.59,356.786 559.5,360.5C 559.167,360.5 558.833,360.5 558.5,360.5C 556.989,363.544 556.322,366.878 556.5,370.5C 556.5,370.833 556.5,371.167 556.5,371.5C 554.233,377.224 552.566,383.224 551.5,389.5C 551.5,389.833 551.5,390.167 551.5,390.5C 549.409,395.191 548.076,400.191 547.5,405.5C 546.883,405.611 546.383,405.944 546,406.5C 544.957,409.757 544.457,413.09 544.5,416.5C 524.066,418.47 503.399,419.137 482.5,418.5C 480.814,409.757 478.814,401.091 476.5,392.5C 476.147,388.087 475.314,383.754 474,379.5C 473.617,378.944 473.117,378.611 472.5,378.5C 472.768,376.901 472.434,375.568 471.5,374.5C 470.927,368.545 469.593,362.878 467.5,357.5C 467.5,357.167 467.5,356.833 467.5,356.5C 466.325,348.781 464.825,341.115 463,333.5C 462.617,332.944 462.117,332.611 461.5,332.5C 459.815,323.095 457.815,313.761 455.5,304.5C 455.196,301.478 454.696,298.478 454,295.5C 453.617,294.944 453.117,294.611 452.5,294.5C 451.49,290.385 450.49,286.385 449.5,282.5C 447.815,273.095 445.815,263.761 443.5,254.5C 443.147,250.087 442.314,245.754 441,241.5C 440.617,240.944 440.117,240.611 439.5,240.5C 439.769,238.571 439.269,236.905 438,235.5C 437.517,236.448 437.351,237.448 437.5,238.5C 436.883,238.611 436.383,238.944 436,239.5C 435.505,241.473 435.338,243.473 435.5,245.5C 435.5,245.833 435.5,246.167 435.5,246.5C 433.898,250.239 432.898,254.239 432.5,258.5C 431.699,260.042 431.366,261.708 431.5,263.5C 429.928,268.327 428.594,273.327 427.5,278.5C 426.85,280.435 426.517,282.435 426.5,284.5C 425.883,284.611 425.383,284.944 425,285.5C 424.505,287.473 424.338,289.473 424.5,291.5C 424.5,291.833 424.5,292.167 424.5,292.5C 423.087,295.219 422.42,298.219 422.5,301.5C 420.008,308.927 418.008,316.594 416.5,324.5C 416.5,325.167 416.5,325.833 416.5,326.5C 415.883,326.611 415.383,326.944 415,327.5C 414.505,329.473 414.338,331.473 414.5,333.5C 413.699,335.042 413.366,336.708 413.5,338.5C 411.898,342.239 410.898,346.239 410.5,350.5C 409.699,352.042 409.366,353.708 409.5,355.5C 407.676,360.936 406.342,366.603 405.5,372.5C 403.178,374.454 402.512,376.787 403.5,379.5C 402.699,381.042 402.366,382.708 402.5,384.5C 399.219,395.55 396.552,406.883 394.5,418.5C 373.833,418.5 353.167,418.5 332.5,418.5C 332.768,416.901 332.434,415.568 331.5,414.5C 331.371,412.784 331.038,411.117 330.5,409.5C 329.279,403.597 327.612,397.931 325.5,392.5C 325.5,392.167 325.5,391.833 325.5,391.5C 325.253,388.146 324.253,385.146 322.5,382.5C 322.016,378.768 321.349,375.101 320.5,371.5C 320.706,368.505 320.04,365.838 318.5,363.5C 318.5,362.833 318.167,362.5 317.5,362.5C 317.102,358.239 316.102,354.239 314.5,350.5C 314.768,348.901 314.434,347.568 313.5,346.5C 313.59,343.848 312.924,341.515 311.5,339.5C 310.406,334.327 309.072,329.327 307.5,324.5C 305.946,316.613 303.946,308.946 301.5,301.5C 301.5,300.833 301.5,300.167 301.5,299.5C 300.987,295.447 300.154,291.447 299,287.5C 298.617,286.944 298.117,286.611 297.5,286.5C 297.371,284.784 297.038,283.117 296.5,281.5C 295.456,276.644 294.123,271.978 292.5,267.5C 292.258,263.521 291.258,259.854 289.5,256.5C 289.768,254.901 289.434,253.568 288.5,252.5C 288.59,249.848 287.924,247.515 286.5,245.5C 286.443,244.391 286.11,243.391 285.5,242.5C 284.612,235.529 282.946,228.862 280.5,222.5C 279.639,217.004 278.306,211.671 276.5,206.5C 276.678,202.878 276.011,199.544 274.5,196.5C 273.5,193.833 272.5,191.167 271.5,188.5C 271.5,188.167 271.5,187.833 271.5,187.5C 270.945,183.603 269.945,179.937 268.5,176.5C 268.5,176.167 268.5,175.833 268.5,175.5C 267.987,171.447 267.154,167.447 266,163.5C 265.617,162.944 265.117,162.611 264.5,162.5C 264.5,162.167 264.5,161.833 264.5,161.5C 262.865,156.292 261.865,150.958 261.5,145.5C 282.242,145.179 302.909,145.512 323.5,146.5 Z"/></g>
<g><path style="opacity:1" fill="#d0e6cd" d="M 409.5,149.5 C 409.833,149.5 410.167,149.5 410.5,149.5C 409.924,154.809 408.591,159.809 406.5,164.5C 406.5,163.5 406.5,162.5 406.5,161.5C 407.751,157.582 408.751,153.582 409.5,149.5 Z"/></g>
<g><path style="opacity:1" fill="#cfe6cd" d="M 552.5,149.5 C 552.802,153.79 552.136,157.79 550.5,161.5C 550.717,157.295 551.383,153.295 552.5,149.5 Z"/></g>
<g><path style="opacity:1" fill="#c9e1c6" d="M 614.5,153.5 C 614.125,155.698 613.458,157.698 612.5,159.5C 612.025,156.918 612.692,154.918 614.5,153.5 Z"/></g>
<g><path style="opacity:1" fill="#b8d6b5" d="M 324.5,153.5 C 326.163,155.438 326.829,157.772 326.5,160.5C 324.837,158.562 324.171,156.228 324.5,153.5 Z"/></g>
<g><path style="opacity:1" fill="#87b283" d="M 406.5,161.5 C 406.5,162.5 406.5,163.5 406.5,164.5C 405.043,169.782 403.709,175.115 402.5,180.5C 402.167,180.5 401.833,180.5 401.5,180.5C 402.413,173.843 404.079,167.509 406.5,161.5 Z"/></g>
<g><path style="opacity:1" fill="#c5dec2" d="M 264.5,162.5 C 265.117,162.611 265.617,162.944 266,163.5C 267.154,167.447 267.987,171.447 268.5,175.5C 266.675,171.435 265.342,167.101 264.5,162.5 Z"/></g>
<g><path style="opacity:1" fill="#cee5cb" d="M 470.5,164.5 C 471.434,165.568 471.768,166.901 471.5,168.5C 472.038,170.117 472.371,171.784 472.5,173.5C 470.735,170.877 470.068,167.877 470.5,164.5 Z"/></g>
<g><path style="opacity:1" fill="#98be93" d="M 612.5,160.5 C 610.434,171.432 607.767,182.098 604.5,192.5C 606.251,181.497 608.917,170.831 612.5,160.5 Z"/></g>
<g><path style="opacity:1" fill="#90b88c" d="M 547.5,170.5 C 547.575,175.192 546.575,179.526 544.5,183.5C 544.342,180.455 545.009,177.621 546.5,175C 546.167,174.667 545.833,174.333 545.5,174C 546.085,172.698 546.751,171.531 547.5,170.5 Z"/></g>
<g><path style="opacity:1" fill="#93ba8f" d="M 471.5,168.5 C 472.117,168.611 472.617,168.944 473,169.5C 474.995,177.812 476.828,186.146 478.5,194.5C 476.009,187.762 474.009,180.762 472.5,173.5C 472.371,171.784 472.038,170.117 471.5,168.5 Z"/></g>
<g><path style="opacity:1" fill="#8ab485" d="M 329.5,172.5 C 331.631,177.152 332.631,182.152 332.5,187.5C 330.739,182.769 329.739,177.769 329.5,172.5 Z"/></g>
<g><path style="opacity:1" fill="#9ec39a" d="M 268.5,176.5 C 269.945,179.937 270.945,183.603 271.5,187.5C 269.432,184.237 268.432,180.57 268.5,176.5 Z"/></g>
<g><path style="opacity:1" fill="#c0dabc" d="M 401.5,180.5 C 401.833,180.5 402.167,180.5 402.5,180.5C 401.464,186.776 399.798,192.776 397.5,198.5C 398.455,192.39 399.788,186.39 401.5,180.5 Z"/></g>
<g><path style="opacity:1" fill="#88b283" d="M 271.5,188.5 C 272.5,191.167 273.5,193.833 274.5,196.5C 274.5,197.833 274.5,199.167 274.5,200.5C 273.883,200.389 273.383,200.056 273,199.5C 272.281,195.855 271.781,192.188 271.5,188.5 Z"/></g>
<g><path style="opacity:1" fill="#aeceaa" d="M 332.5,187.5 C 334.373,191.515 335.373,195.849 335.5,200.5C 334.778,200.082 334.278,199.416 334,198.5C 333.452,194.83 332.952,191.163 332.5,187.5 Z"/></g>
<g><path style="opacity:1" fill="#d2e7d0" d="M 274.5,196.5 C 276.011,199.544 276.678,202.878 276.5,206.5C 275.542,204.698 274.875,202.698 274.5,200.5C 274.5,199.167 274.5,197.833 274.5,196.5 Z"/></g>
<g><path style="opacity:1" fill="#bbd7b8" d="M 542.5,196.5 C 542.946,199.01 542.28,201.01 540.5,202.5C 540.259,200.102 540.926,198.102 542.5,196.5 Z"/></g>
<g><path style="opacity:1" fill="#d1e7cf" d="M 479.5,202.5 C 481.31,205.145 482.31,208.145 482.5,211.5C 480.446,208.992 479.446,205.992 479.5,202.5 Z"/></g>
<g><path style="opacity:1" fill="#98be94" d="M 600.5,205.5 C 600.568,209.57 599.568,213.237 597.5,216.5C 598.055,212.603 599.055,208.937 600.5,205.5 Z"/></g>
<g><path style="opacity:1" fill="#cae2c7" d="M 336.5,207.5 C 338.258,210.854 339.258,214.521 339.5,218.5C 338.883,218.389 338.383,218.056 338,217.5C 337.174,214.207 336.674,210.874 336.5,207.5 Z"/></g>
<g><path style="opacity:1" fill="#7cab77" d="M 701.5,212.5 C 702.174,227.235 702.841,242.069 703.5,257C 703.167,257.333 702.833,257.667 702.5,258C 703.737,258.232 704.737,258.732 705.5,259.5C 704.167,259.5 702.833,259.5 701.5,259.5C 701.5,243.833 701.5,228.167 701.5,212.5 Z"/></g>
<g><path style="opacity:1" fill="#dff1dd" d="M 660.5,212.5 C 662.167,212.5 663.833,212.5 665.5,212.5C 664.432,213.434 663.099,213.768 661.5,213.5C 661.83,229.009 661.496,244.342 660.5,259.5C 660.5,243.833 660.5,228.167 660.5,212.5 Z"/></g>
<g><path style="opacity:1" fill="#fefefe" d="M 665.5,212.5 C 665.833,212.5 666.167,212.5 666.5,212.5C 677.654,213.495 688.988,213.828 700.5,213.5C 700.17,229.009 700.504,244.342 701.5,259.5C 716.991,260.496 732.658,260.83 748.5,260.5C 748.5,273.833 748.5,287.167 748.5,300.5C 732.658,300.17 716.991,300.504 701.5,301.5C 701.5,316.833 701.5,332.167 701.5,347.5C 688.167,347.5 674.833,347.5 661.5,347.5C 661.5,331.833 661.5,316.167 661.5,300.5C 645.5,300.5 629.5,300.5 613.5,300.5C 613.5,287.167 613.5,273.833 613.5,260.5C 629.342,260.83 645.009,260.496 660.5,259.5C 661.496,244.342 661.83,229.009 661.5,213.5C 663.099,213.768 664.432,213.434 665.5,212.5 Z"/></g>
<g><path style="opacity:1" fill="#dceed9" d="M 666.5,212.5 C 678.167,212.5 689.833,212.5 701.5,212.5C 701.5,228.167 701.5,243.833 701.5,259.5C 700.504,244.342 700.17,229.009 700.5,213.5C 688.988,213.828 677.654,213.495 666.5,212.5 Z"/></g>
<g><path style="opacity:1" fill="#94bb90" d="M 393.5,212.5 C 393.324,215.727 392.657,218.727 391.5,221.5C 391.215,218.171 391.882,215.171 393.5,212.5 Z"/></g>
<g><path style="opacity:1" fill="#98be94" d="M 339.5,218.5 C 340.793,219.842 341.626,221.509 342,223.5C 343.695,232.141 345.195,240.808 346.5,249.5C 343.553,239.451 341.22,229.118 339.5,218.5 Z"/></g>
<g><path style="opacity:1" fill="#92ba8e" d="M 597.5,216.5 C 597.197,221.249 596.363,225.916 595,230.5C 594.8,232.32 593.966,233.653 592.5,234.5C 593.879,228.308 595.545,222.308 597.5,216.5 Z"/></g>
<g><path style="opacity:1" fill="#9fc39b" d="M 660.5,212.5 C 660.5,228.167 660.5,243.833 660.5,259.5C 645.009,260.496 629.342,260.83 613.5,260.5C 613.5,260.167 613.5,259.833 613.5,259.5C 628.548,259.817 643.548,259.484 658.5,258.5C 659.823,243.27 659.823,228.103 658.5,213C 659.094,212.536 659.761,212.369 660.5,212.5 Z"/></g>
<g><path style="opacity:1" fill="#91b98d" d="M 538.5,210.5 C 537.581,217.373 536.247,224.04 534.5,230.5C 534.706,223.467 536.04,216.801 538.5,210.5 Z"/></g>
<g><path style="opacity:1" fill="#8eb789" d="M 280.5,222.5 C 282.946,228.862 284.612,235.529 285.5,242.5C 282.921,236.186 281.255,229.519 280.5,222.5 Z"/></g>
<g><path style="opacity:1" fill="#9dc299" d="M 483.5,216.5 C 484.117,216.611 484.617,216.944 485,217.5C 487.028,225.807 488.861,234.14 490.5,242.5C 487.566,234.106 485.233,225.439 483.5,216.5 Z"/></g>
<g><path style="opacity:1" fill="#9ec39a" d="M 534.5,230.5 C 533.913,236.456 532.579,242.122 530.5,247.5C 531.075,241.54 532.408,235.874 534.5,230.5 Z"/></g>
<g><path style="opacity:1" fill="#cde4cb" d="M 437.5,238.5 C 437.073,241.01 436.407,243.343 435.5,245.5C 435.338,243.473 435.505,241.473 436,239.5C 436.383,238.944 436.883,238.611 437.5,238.5 Z"/></g>
<g><path style="opacity:1" fill="#cbe2c8" d="M 591.5,239.5 C 590.632,243.314 589.632,246.981 588.5,250.5C 588.457,247.09 588.957,243.757 590,240.5C 590.383,239.944 590.883,239.611 591.5,239.5 Z"/></g>
<g><path style="opacity:1" fill="#d1e7ce" d="M 439.5,240.5 C 440.117,240.611 440.617,240.944 441,241.5C 442.314,245.754 443.147,250.087 443.5,254.5C 443.167,254.5 442.833,254.5 442.5,254.5C 441.815,249.761 440.815,245.095 439.5,240.5 Z"/></g>
<g><path style="opacity:1" fill="#90b88b" d="M 286.5,245.5 C 287.924,247.515 288.59,249.848 288.5,252.5C 286.352,252.611 286.019,251.944 287.5,250.5C 286.975,249.808 286.308,249.308 285.5,249C 286.337,247.989 286.67,246.822 286.5,245.5 Z"/></g>
<g><path style="opacity:1" fill="#a2c59f" d="M 435.5,246.5 C 435.416,250.837 434.416,254.837 432.5,258.5C 432.898,254.239 433.898,250.239 435.5,246.5 Z"/></g>
<g><path style="opacity:1" fill="#bad7b7" d="M 491.5,247.5 C 492.924,249.515 493.59,251.848 493.5,254.5C 492.883,254.389 492.383,254.056 492,253.5C 491.505,251.527 491.338,249.527 491.5,247.5 Z"/></g>
<g><path style="opacity:1" fill="#90b88b" d="M 382.5,255.5 C 381.912,261.461 380.579,267.127 378.5,272.5C 379.075,266.54 380.408,260.874 382.5,255.5 Z"/></g>
<g><path style="opacity:1" fill="#9fc39b" d="M 588.5,250.5 C 588.706,253.495 588.04,256.162 586.5,258.5C 586.565,255.572 587.232,252.905 588.5,250.5 Z"/></g>
<g><path style="opacity:1" fill="#8db688" d="M 493.5,254.5 C 495.91,260.171 497.576,266.171 498.5,272.5C 498.167,272.5 497.833,272.5 497.5,272.5C 495.852,266.575 494.519,260.575 493.5,254.5 Z"/></g>
<g><path style="opacity:1" fill="#a0c49c" d="M 289.5,256.5 C 291.258,259.854 292.258,263.521 292.5,267.5C 290.742,264.146 289.742,260.479 289.5,256.5 Z"/></g>
<g><path style="opacity:1" fill="#aacba6" d="M 701.5,259.5 C 702.833,259.5 704.167,259.5 705.5,259.5C 720.167,259.5 734.833,259.5 749.5,259.5C 749.829,273.677 749.496,287.677 748.5,301.5C 732.833,301.5 717.167,301.5 701.5,301.5C 716.991,300.504 732.658,300.17 748.5,300.5C 748.5,287.167 748.5,273.833 748.5,260.5C 732.658,260.83 716.991,260.496 701.5,259.5 Z"/></g>
<g><path style="opacity:1" fill="#bbd7b8" d="M 347.5,256.5 C 349.074,258.102 349.741,260.102 349.5,262.5C 347.72,261.01 347.054,259.01 347.5,256.5 Z"/></g>
<g><path style="opacity:1" fill="#86b182" d="M 613.5,259.5 C 613.5,259.833 613.5,260.167 613.5,260.5C 613.5,273.833 613.5,287.167 613.5,300.5C 613.5,300.833 613.5,301.167 613.5,301.5C 612.883,301.389 612.383,301.056 612,300.5C 611.333,287.167 611.333,273.833 612,260.5C 612.383,259.944 612.883,259.611 613.5,259.5 Z"/></g>
<g><path style="opacity:1" fill="#8db688" d="M 586.5,258.5 C 585.656,264.547 584.489,270.547 583,276.5C 582.617,277.056 582.117,277.389 581.5,277.5C 582.722,270.939 584.389,264.606 586.5,258.5 Z"/></g>
<g><path style="opacity:1" fill="#97bd93" d="M 442.5,254.5 C 442.833,254.5 443.167,254.5 443.5,254.5C 445.815,263.761 447.815,273.095 449.5,282.5C 446.421,273.468 444.088,264.134 442.5,254.5 Z"/></g>
<g><path style="opacity:1" fill="#92ba8e" d="M 431.5,263.5 C 431.308,268.27 430.475,272.937 429,277.5C 428.617,278.056 428.117,278.389 427.5,278.5C 428.594,273.327 429.928,268.327 431.5,263.5 Z"/></g>
<g><path style="opacity:1" fill="#94bb8f" d="M 525.5,271.5 C 525.198,274.373 524.531,277.039 523.5,279.5C 523.337,277.143 523.503,274.81 524,272.5C 524.383,271.944 524.883,271.611 525.5,271.5 Z"/></g>
<g><path style="opacity:1" fill="#b5d3b1" d="M 497.5,272.5 C 497.833,272.5 498.167,272.5 498.5,272.5C 500.3,278.034 501.633,283.701 502.5,289.5C 500.097,284.148 498.43,278.481 497.5,272.5 Z"/></g>
<g><path style="opacity:1" fill="#8bb586" d="M 292.5,267.5 C 294.123,271.978 295.456,276.644 296.5,281.5C 295.034,280.653 294.2,279.32 294,277.5C 292.957,274.243 292.457,270.91 292.5,267.5 Z"/></g>
<g><path style="opacity:1" fill="#9abf96" d="M 523.5,279.5 C 523.118,284.092 522.118,288.425 520.5,292.5C 520.627,287.849 521.627,283.515 523.5,279.5 Z"/></g>
<g><path style="opacity:1" fill="#9cc098" d="M 353.5,281.5 C 355.245,285.2 356.245,289.2 356.5,293.5C 354.755,289.8 353.755,285.8 353.5,281.5 Z"/></g>
<g><path style="opacity:1" fill="#cde4cb" d="M 426.5,284.5 C 426.073,287.01 425.407,289.343 424.5,291.5C 424.338,289.473 424.505,287.473 425,285.5C 425.383,284.944 425.883,284.611 426.5,284.5 Z"/></g>
<g><path style="opacity:1" fill="#c9e1c6" d="M 579.5,285.5 C 579.125,287.698 578.458,289.698 577.5,291.5C 577.025,288.918 577.692,286.918 579.5,285.5 Z"/></g>
<g><path style="opacity:1" fill="#cae2c7" d="M 297.5,286.5 C 298.117,286.611 298.617,286.944 299,287.5C 300.154,291.447 300.987,295.447 301.5,299.5C 299.423,295.503 298.09,291.169 297.5,286.5 Z"/></g>
<g><path style="opacity:1" fill="#accda8" d="M 520.5,292.5 C 520.58,295.781 519.913,298.781 518.5,301.5C 518.42,298.219 519.087,295.219 520.5,292.5 Z"/></g>
<g><path style="opacity:1" fill="#9ac096" d="M 424.5,292.5 C 424.58,295.781 423.913,298.781 422.5,301.5C 422.42,298.219 423.087,295.219 424.5,292.5 Z"/></g>
<g><path style="opacity:1" fill="#cee5cc" d="M 452.5,294.5 C 453.117,294.611 453.617,294.944 454,295.5C 454.696,298.478 455.196,301.478 455.5,304.5C 455.167,304.5 454.833,304.5 454.5,304.5C 453.96,301.135 453.294,297.802 452.5,294.5 Z"/></g>
<g><path style="opacity:1" fill="#a9cba6" d="M 356.5,293.5 C 357.785,296.589 358.451,299.922 358.5,303.5C 356.989,300.456 356.322,297.122 356.5,293.5 Z"/></g>
<g><path style="opacity:1" fill="#cee5cc" d="M 613.5,301.5 C 613.5,301.167 613.5,300.833 613.5,300.5C 629.5,300.5 645.5,300.5 661.5,300.5C 661.5,316.167 661.5,331.833 661.5,347.5C 674.833,347.5 688.167,347.5 701.5,347.5C 701.5,347.833 701.5,348.167 701.5,348.5C 687.833,348.5 674.167,348.5 660.5,348.5C 660.5,332.833 660.5,317.167 660.5,301.5C 646.167,301.5 631.833,301.5 617.5,301.5C 616.167,301.5 614.833,301.5 613.5,301.5 Z"/></g>
<g><path style="opacity:1" fill="#85b080" d="M 617.5,301.5 C 631.833,301.5 646.167,301.5 660.5,301.5C 660.5,317.167 660.5,332.833 660.5,348.5C 659.504,333.342 659.17,318.009 659.5,302.5C 645.323,302.829 631.323,302.496 617.5,301.5 Z"/></g>
<g><path style="opacity:1" fill="#7cab77" d="M 701.5,301.5 C 717.167,301.5 732.833,301.5 748.5,301.5C 733.339,302.331 718.005,302.831 702.5,303C 702.833,303.333 703.167,303.667 703.5,304C 702.841,318.931 702.174,333.765 701.5,348.5C 701.5,348.167 701.5,347.833 701.5,347.5C 701.5,332.167 701.5,316.833 701.5,301.5 Z"/></g>
<g><path style="opacity:1" fill="#91b98d" d="M 301.5,301.5 C 303.946,308.946 305.946,316.613 307.5,324.5C 304.431,317.229 302.431,309.562 301.5,301.5 Z"/></g>
<g><path style="opacity:1" fill="#d0e7ce" d="M 518.5,301.5 C 518.884,305.489 518.217,309.155 516.5,312.5C 516.808,308.64 517.475,304.974 518.5,301.5 Z"/></g>
<g><path style="opacity:1" fill="#96bd92" d="M 422.5,301.5 C 421.337,307.81 420.17,314.143 419,320.5C 418.8,322.32 417.966,323.653 416.5,324.5C 418.008,316.594 420.008,308.927 422.5,301.5 Z"/></g>
<g><path style="opacity:1" fill="#91b98c" d="M 454.5,304.5 C 454.833,304.5 455.167,304.5 455.5,304.5C 457.815,313.761 459.815,323.095 461.5,332.5C 459.767,331.992 459.434,331.159 460.5,330C 457.802,321.681 455.802,313.181 454.5,304.5 Z"/></g>
<g><path style="opacity:1" fill="#cae2c7" d="M 358.5,303.5 C 359.402,307.755 360.402,312.089 361.5,316.5C 359.933,315.319 359.099,313.653 359,311.5C 358.503,308.854 358.336,306.187 358.5,303.5 Z"/></g>
<g><path style="opacity:1" fill="#96bd92" d="M 575.5,299.5 C 574.99,304.211 574.156,308.878 573,313.5C 572.8,315.32 571.966,316.653 570.5,317.5C 571.877,311.312 573.544,305.312 575.5,299.5 Z"/></g>
<g><path style="opacity:1" fill="#91b98c" d="M 369.5,308.5 C 369.279,311.067 368.612,313.401 367.5,315.5C 367.171,312.772 367.837,310.438 369.5,308.5 Z"/></g>
<g><path style="opacity:1" fill="#98be94" d="M 507.5,310.5 C 508.117,310.611 508.617,310.944 509,311.5C 509.696,314.478 510.196,317.478 510.5,320.5C 508.899,317.45 507.899,314.116 507.5,310.5 Z"/></g>
<g><path style="opacity:1" fill="#88b283" d="M 361.5,316.5 C 362.588,319.06 363.921,321.394 365.5,323.5C 365.34,325.153 364.674,326.486 363.5,327.5C 362.727,323.86 362.06,320.193 361.5,316.5 Z"/></g>
<g><path style="opacity:1" fill="#cee5cc" d="M 366.5,319.5 C 366.663,321.857 366.497,324.19 366,326.5C 365.081,329.402 364.248,329.735 363.5,327.5C 364.674,326.486 365.34,325.153 365.5,323.5C 365.232,321.901 365.566,320.568 366.5,319.5 Z"/></g>
<g><path style="opacity:1" fill="#cee5cc" d="M 569.5,322.5 C 568.343,326.793 567.343,331.127 566.5,335.5C 566.167,335.5 565.833,335.5 565.5,335.5C 566.013,331.447 566.846,327.447 568,323.5C 568.383,322.944 568.883,322.611 569.5,322.5 Z"/></g>
<g><path style="opacity:1" fill="#d2e7cf" d="M 510.5,323.5 C 511.143,325.076 512.143,326.41 513.5,327.5C 513.217,328.289 512.717,328.956 512,329.5C 510.872,327.655 510.372,325.655 510.5,323.5 Z"/></g>
<g><path style="opacity:1" fill="#c9e1c6" d="M 416.5,326.5 C 416.073,329.01 415.407,331.343 414.5,333.5C 414.338,331.473 414.505,329.473 415,327.5C 415.383,326.944 415.883,326.611 416.5,326.5 Z"/></g>
<g><path style="opacity:1" fill="#c3ddc0" d="M 461.5,332.5 C 462.117,332.611 462.617,332.944 463,333.5C 464.825,341.115 466.325,348.781 467.5,356.5C 465.229,348.686 463.229,340.686 461.5,332.5 Z"/></g>
<g><path style="opacity:1" fill="#a3c69f" d="M 413.5,338.5 C 413.416,342.837 412.416,346.837 410.5,350.5C 410.898,346.239 411.898,342.239 413.5,338.5 Z"/></g>
<g><path style="opacity:1" fill="#9bc097" d="M 565.5,335.5 C 565.833,335.5 566.167,335.5 566.5,335.5C 565.611,340.728 564.278,345.728 562.5,350.5C 563.025,345.4 564.025,340.4 565.5,335.5 Z"/></g>
<g><path style="opacity:1" fill="#a0c49c" d="M 311.5,339.5 C 312.924,341.515 313.59,343.848 313.5,346.5C 312.076,344.485 311.41,342.152 311.5,339.5 Z"/></g>
<g><path style="opacity:1" fill="#8eb789" d="M 314.5,350.5 C 316.102,354.239 317.102,358.239 317.5,362.5C 315.034,358.982 314.034,354.982 314.5,350.5 Z"/></g>
<g><path style="opacity:1" fill="#8db688" d="M 562.5,350.5 C 562.277,354.162 561.277,357.495 559.5,360.5C 559.59,356.786 560.59,353.452 562.5,350.5 Z"/></g>
<g><path style="opacity:1" fill="#8eb78a" d="M 467.5,357.5 C 469.593,362.878 470.927,368.545 471.5,374.5C 469.092,369.194 467.758,363.528 467.5,357.5 Z"/></g>
<g><path style="opacity:1" fill="#d6ead4" d="M 318.5,363.5 C 320.04,365.838 320.706,368.505 320.5,371.5C 319.232,369.095 318.565,366.428 318.5,363.5 Z"/></g>
<g><path style="opacity:1" fill="#d2e7d0" d="M 558.5,360.5 C 558.678,364.122 558.011,367.456 556.5,370.5C 556.322,366.878 556.989,363.544 558.5,360.5 Z"/></g>
<g><path style="opacity:1" fill="#8ab486" d="M 409.5,355.5 C 409.422,361.575 408.089,367.241 405.5,372.5C 406.342,366.603 407.676,360.936 409.5,355.5 Z"/></g>
<g><path style="opacity:1" fill="#c9e1c6" d="M 405.5,372.5 C 405.279,375.067 404.612,377.401 403.5,379.5C 402.512,376.787 403.178,374.454 405.5,372.5 Z"/></g>
<g><path style="opacity:1" fill="#a0c49c" d="M 556.5,371.5 C 555.744,377.869 554.077,383.869 551.5,389.5C 552.566,383.224 554.233,377.224 556.5,371.5 Z"/></g>
<g><path style="opacity:1" fill="#c8e0c5" d="M 472.5,378.5 C 473.117,378.611 473.617,378.944 474,379.5C 475.314,383.754 476.147,388.087 476.5,392.5C 476.167,392.5 475.833,392.5 475.5,392.5C 474.715,387.787 473.715,383.121 472.5,378.5 Z"/></g>
<g><path style="opacity:1" fill="#96bc91" d="M 322.5,382.5 C 324.253,385.146 325.253,388.146 325.5,391.5C 323.747,388.854 322.747,385.854 322.5,382.5 Z"/></g>
<g><path style="opacity:1" fill="#91b98d" d="M 551.5,390.5 C 551.358,395.911 550.024,400.911 547.5,405.5C 548.076,400.191 549.409,395.191 551.5,390.5 Z"/></g>
<g><path style="opacity:1" fill="#8ab485" d="M 325.5,392.5 C 327.612,397.931 329.279,403.597 330.5,409.5C 329.414,409.38 328.747,408.713 328.5,407.5C 327.02,402.581 326.02,397.581 325.5,392.5 Z"/></g>
<g><path style="opacity:1" fill="#c7e0c4" d="M 547.5,405.5 C 546.664,409.323 545.664,412.989 544.5,416.5C 544.457,413.09 544.957,409.757 546,406.5C 546.383,405.944 546.883,405.611 547.5,405.5 Z"/></g>
<g><path style="opacity:1" fill="#99be94" d="M 475.5,392.5 C 475.833,392.5 476.167,392.5 476.5,392.5C 478.814,401.091 480.814,409.757 482.5,418.5C 481.883,418.389 481.383,418.056 481,417.5C 478.973,409.195 477.139,400.862 475.5,392.5 Z"/></g>
<g><path style="opacity:1" fill="#92b98d" d="M 402.5,384.5 C 400.745,396.181 398.078,407.515 394.5,418.5C 396.552,406.883 399.219,395.55 402.5,384.5 Z"/></g>
<g><path style="opacity:1" fill="#99be95" d="M 331.5,414.5 C 332.434,415.568 332.768,416.901 332.5,418.5C 353.167,418.5 373.833,418.5 394.5,418.5C 373.673,419.497 352.673,419.831 331.5,419.5C 331.5,417.833 331.5,416.167 331.5,414.5 Z"/></g>
<g><path style="opacity:1" fill="#9abf96" d="M 544.5,416.5 C 544.5,417.5 544.5,418.5 544.5,419.5C 523.66,419.831 502.993,419.497 482.5,418.5C 503.399,419.137 524.066,418.47 544.5,416.5 Z"/></g>
</svg>
